<svg width="200" viewBox="0 0 512 512" fill="none" xmlns="http://www.w3.org/2000/svg" xmlns:xlink="http://www.w3.org/1999/xlink" class="">
    <rect id="r4" width="512" height="512" x="0" y="0" rx="128" fill="url(#r5)" stroke="#FFFFFF" stroke-width="0" stroke-opacity="100%"
        paint-order="stroke"></rect>
    <clipPath id="clip">
        <use xlink:href="#r4"></use>
    </clipPath>
    <defs>
        <linearGradient id="r5" gradientUnits="userSpaceOnUse" gradientTransform="rotate(180)" style="transform-origin: center center;">
            <stop stop-color="#FC466B"></stop>
            <stop offset="1" stop-color="#3F5EFB"></stop>
        </linearGradient>
        <radialGradient id="r6" cx="0" cy="0" r="1" gradientUnits="userSpaceOnUse" gradientTransform="translate(256) rotate(90) scale(512)">
            <stop stop-color="white"></stop>
            <stop offset="1" stop-color="white" stop-opacity="0"></stop>
        </radialGradient>
    </defs><svg xmlns="http://www.w3.org/2000/svg" width="352" height="352" viewBox="0 0 24 24" x="80" y="80" alignment-baseline="middle"
        style="color: rgb(255, 255, 255);">
        <g fill="none" stroke="currentColor" stroke-linecap="round" stroke-linejoin="round" stroke-width="1.5">
            <path
                d="M19.194 9.079V7.821c0-.538-.216-1.054-.602-1.434a2.07 2.07 0 0 0-1.453-.594H6.86a2.07 2.07 0 0 0-1.453.594c-.386.38-.602.896-.602 1.434V9.08">
            </path>
            <path
                d="M6.861 5.793V4.779c0-.538.217-1.054.602-1.435a2.07 2.07 0 0 1 1.454-.594h6.166a2.07 2.07 0 0 1 1.454.594c.385.38.602.897.602 1.435v1.014m.781 3.043H6.08c-1.84 0-3.33 1.47-3.33 3.286v5.842c0 1.815 1.49 3.286 3.33 3.286h11.84c1.84 0 3.33-1.471 3.33-3.286v-5.842c0-1.815-1.49-3.286-3.33-3.286">
            </path>
            <path
                d="M7.889 12.893v1.014c0 .538.216 1.054.602 1.434c.385.38.908.594 1.453.594h4.112a2.07 2.07 0 0 0 1.453-.594c.386-.38.602-.896.602-1.434v-1.014">
            </path>
        </g>
    </svg>
</svg>