<svg width="16" height="16" viewBox="0 0 512 512" fill="none" xmlns="http://www.w3.org/2000/svg" xmlns:xlink="http://www.w3.org/1999/xlink"
    class="">
    <rect id="r4" width="512" height="512" x="0" y="0" rx="128" fill="url(#r5)" stroke="#FFFFFF" strokeWidth="0" stroke-opacity="100%"
        paint-order="stroke"></rect>
    <clipPath id="clip">
        <use xlink:href="#r4"></use>
    </clipPath>
    <defs>
        <linearGradient id="r5" gradientUnits="userSpaceOnUse" gradientTransform="rotate(45)" style="transform-origin: center center;">
            <stop stop-color="#F5AF19"></stop>
            <stop offset="1" stop-color="#F12711"></stop>
        </linearGradient>
        <radialGradient id="r6" cx="0" cy="0" r="1" gradientUnits="userSpaceOnUse" gradientTransform="translate(256) rotate(90) scale(512)">
            <stop stop-color="white"></stop>
            <stop offset="1" stop-color="white" stop-opacity="0"></stop>
        </radialGradient>
    </defs><svg xmlns="http://www.w3.org/2000/svg" fill="none" viewBox="0 0 16 16" width="352" height="352" x="80" y="80"
        alignment-baseline="middle" style="color: rgb(255, 255, 255);">
        <path stroke="currentColor" strokeLinecap="round" strokeLinejoin="round" strokeWidth="1.5"
            d="M12.42 3.75a5.849 5.849 0 0 1 0 8.5m-8.84 0a5.849 5.849 0 0 1 0-8.5m6.718 2a3.135 3.135 0 0 1 0 4.5m-4.596 0a3.135 3.135 0 0 1 0-4.5">
        </path>
        <path stroke="currentColor" strokeLinecap="round" strokeLinejoin="round" d="M8.5 8a.5.5 0 1 1-1 0 .5.5 0 0 1 1 0Z"></path>
    </svg>
</svg>