<svg width="16" height="16" viewBox="0 0 512 512" fill="none" xmlns="http://www.w3.org/2000/svg" xmlns:xlink="http://www.w3.org/1999/xlink"
    class="">
    <rect id="r4" width="512" height="512" x="0" y="0" rx="128" fill="url(#r5)" stroke="#FFFFFF" stroke-width="0" stroke-opacity="100%"
        paint-order="stroke"></rect>
    <clipPath id="clip">
        <use xlink:href="#r4"></use>
    </clipPath>
    <defs>
        <linearGradient id="r5" gradientUnits="userSpaceOnUse" gradientTransform="rotate(45)" style="transform-origin: center center;">
            <stop stop-color="#F5AF19"></stop>
            <stop offset="1" stop-color="#F12711"></stop>
        </linearGradient>
        <radialGradient id="r6" cx="0" cy="0" r="1" gradientUnits="userSpaceOnUse" gradientTransform="translate(256) rotate(90) scale(512)">
            <stop stop-color="white"></stop>
            <stop offset="1" stop-color="white" stop-opacity="0"></stop>
        </radialGradient>
    </defs><svg xmlns="http://www.w3.org/2000/svg" fill="none" viewBox="0 0 16 16" width="393" height="393" x="59.5" y="59.5"
        alignment-baseline="middle" style="color: rgb(255, 255, 255);">
        <path stroke="currentColor" strokeLinecap="round" strokeLinejoin="round" stroke-width="1.5"
            d="M8 4.75v-3m0 3H3.75a2 2 0 0 0-2 2v5.5a2 2 0 0 0 2 2h8.5a2 2 0 0 0 2-2v-5.5a2 2 0 0 0-2-2H8Zm-2.25 6.5h4.5m-5.5-3h.5m2.5 0h.5m2.5 0h.5">
        </path>
    </svg>
</svg>
