<svg width="200" viewBox="0 0 2983 440" fill="none" xmlns="http://www.w3.org/2000/svg">
    <path
        d="M297.364 318.171C275.347 340.179 253.241 362.311 231.039 384.557C230.157 385.44 229.416 385.925 228.111 385.925C208.66 385.907 189.651 385.898 171.074 385.898C160.057 385.907 149.71 385.175 140.034 383.711C139.901 383.693 139.848 383.525 139.945 383.428C171.463 351.999 202.795 320.667 233.959 289.432C255.297 268.042 266.085 238.924 262.433 208.668C257.158 164.996 224.088 130.594 180.636 123.784C168.058 121.808 153.803 122.452 141.18 125.857C123.3 130.673 108.04 139.68 95.3908 152.884C80.0512 168.894 69.7837 190.735 68.7252 213.123C67.552 237.936 74.7675 262.44 90.4599 281.308C106.214 300.247 126.388 311.838 150.972 316.089C151.148 316.116 151.227 316.336 151.095 316.469L97.1374 370.294C96.8904 370.541 96.5287 370.603 96.22 370.453C52.327 349.944 19.4602 311.652 6.20236 264.999C1.65076 248.98 -0.3957 231.682 0.0629888 213.114C1.02447 174.531 17.7313 135.11 44.2029 107.104C68.9104 80.9586 98.6634 64.3311 133.471 57.2302C145.776 54.7163 159.034 53.9577 172.142 54.0018C190.939 54.0635 209.657 54.0724 228.305 54.0194C229.178 54.0194 230.007 54.3635 230.625 54.9809L297.258 121.711C297.425 121.879 297.708 121.879 297.884 121.711L364.897 54.6104C365.25 54.2488 365.735 54.0459 366.246 54.0459C385.688 54.0283 406.858 54.0371 429.757 54.0635C438.437 54.0724 446.817 54.7427 454.888 56.0571C455.161 56.1012 455.276 56.4364 455.073 56.6392C426.361 85.3514 397.49 114.196 368.469 143.155C361.677 149.938 357.567 154.137 356.138 155.751C318.931 198.048 325.432 261.991 369.36 296.542C389.278 312.208 416.976 320.165 442.301 316.169C470.527 311.723 492.756 298.077 508.978 275.222C531.621 243.334 531.948 200.209 510.839 167.36C495.72 143.825 472.239 128.75 444.55 123.819C444.065 123.74 444.003 123.52 444.347 123.176L497.969 69.6148C498.172 69.412 498.49 69.3502 498.754 69.4737C518.24 78.3476 535.582 90.9527 550.78 107.289C577.472 135.984 592.494 172.335 594.735 211.464C597.567 260.897 577.552 308.3 541.951 341.229C516.599 364.666 486.961 378.903 453.027 383.922C442.336 385.51 431.195 385.942 419.304 385.925C401.848 385.907 384.303 385.907 366.67 385.916C365.902 385.916 365.25 385.642 364.712 385.104L297.831 318.171C297.699 318.039 297.487 318.039 297.364 318.171Z"
        fill="#9D9D9D" />
    <path
        d="M910.61 352.756C896.22 352.756 882.439 350.5 869.268 345.988C856.098 341.354 844.573 334.768 834.695 326.232C824.817 317.573 817.683 307.268 813.293 295.317L864.878 276.293C866.098 279.829 868.781 283.244 872.927 286.537C877.195 289.829 882.561 292.573 889.024 294.768C895.488 296.841 902.683 297.878 910.61 297.878C917.927 297.878 924.817 296.841 931.281 294.768C937.744 292.573 942.988 289.585 947.012 285.805C951.037 282.024 953.049 277.634 953.049 272.634C953.049 267.512 950.915 263.305 946.646 260.012C942.5 256.598 937.134 253.915 930.549 251.963C924.085 249.89 917.439 248.366 910.61 247.39C892.073 244.707 875.427 240.317 860.671 234.219C846.037 228 834.451 219.463 825.915 208.61C817.5 197.756 813.293 183.976 813.293 167.268C813.293 151.293 817.805 137.329 826.829 125.378C835.854 113.305 847.744 103.915 862.5 97.2073C877.378 90.5 893.415 87.1463 910.61 87.1463C925 87.1463 938.781 89.4634 951.951 94.0975C965.244 98.6097 976.829 105.195 986.707 113.854C996.585 122.512 1003.66 132.878 1007.93 144.951L956.341 163.61C955.122 160.073 952.378 156.719 948.11 153.549C943.963 150.256 938.659 147.573 932.195 145.5C925.732 143.427 918.537 142.39 910.61 142.39C903.537 142.268 896.768 143.305 890.305 145.5C883.841 147.695 878.537 150.683 874.39 154.463C870.244 158.244 868.171 162.512 868.171 167.268C868.171 173.854 870.122 178.793 874.024 182.085C877.927 185.256 883.049 187.512 889.39 188.854C895.854 190.195 902.927 191.415 910.61 192.512C928.171 195.073 944.329 199.646 959.085 206.232C973.841 212.817 985.671 221.598 994.573 232.573C1003.48 243.549 1007.93 256.902 1007.93 272.634C1007.93 288.61 1003.41 302.634 994.39 314.707C985.488 326.659 973.659 335.988 958.902 342.695C944.146 349.402 928.049 352.756 910.61 352.756ZM1039.09 281.598V165.073H1093.97V266.232C1093.97 271.963 1095.37 277.207 1098.18 281.963C1100.98 286.598 1104.7 290.317 1109.34 293.122C1114.09 295.805 1119.28 297.146 1124.89 297.146C1130.62 297.146 1135.8 295.805 1140.43 293.122C1145.19 290.317 1148.91 286.598 1151.59 281.963C1154.4 277.207 1155.8 271.963 1155.8 266.232V165.073H1210.68L1210.86 348H1155.98L1155.8 336.11C1149.7 341.354 1142.75 345.439 1134.95 348.366C1127.14 351.293 1118.91 352.756 1110.25 352.756C1097.2 352.756 1085.25 349.585 1074.4 343.244C1063.67 336.78 1055.07 328.183 1048.61 317.451C1042.26 306.72 1039.09 294.768 1039.09 281.598ZM1295.38 439.463H1240.5V165.073H1295.38V182.268C1301.11 175.805 1307.75 170.561 1315.32 166.537C1322.88 162.39 1331.6 160.317 1341.47 160.317C1354.89 160.317 1367.39 162.817 1378.97 167.817C1390.56 172.817 1400.74 179.768 1409.52 188.671C1418.43 197.451 1425.32 207.634 1430.19 219.219C1435.19 230.805 1437.69 243.244 1437.69 256.537C1437.69 269.829 1435.19 282.329 1430.19 294.037C1425.32 305.744 1418.43 316.049 1409.52 324.951C1400.74 333.732 1390.56 340.622 1378.97 345.622C1367.39 350.622 1354.89 353.122 1341.47 353.122C1331.6 353.122 1322.88 351.049 1315.32 346.902C1307.75 342.756 1301.11 337.512 1295.38 331.171V439.463ZM1340.74 213C1333.3 213 1326.47 215.012 1320.25 219.037C1314.16 222.939 1309.28 228.183 1305.62 234.768C1301.96 241.354 1300.13 248.61 1300.13 256.537C1300.13 264.585 1301.96 271.902 1305.62 278.488C1309.28 285.073 1314.16 290.317 1320.25 294.22C1326.47 298.122 1333.3 300.073 1340.74 300.073C1348.3 300.073 1355.19 298.122 1361.41 294.22C1367.63 290.317 1372.57 285.073 1376.23 278.488C1379.89 271.902 1381.72 264.585 1381.72 256.537C1381.72 248.61 1379.89 241.354 1376.23 234.768C1372.57 228.183 1367.63 222.939 1361.41 219.037C1355.19 215.012 1348.3 213 1340.74 213ZM1551.16 352.756C1534.33 352.756 1518.96 348.427 1505.06 339.768C1491.28 331.11 1480.24 319.463 1471.95 304.829C1463.78 290.195 1459.7 274.037 1459.7 256.354C1459.7 243.061 1462.07 230.622 1466.83 219.037C1471.59 207.329 1478.11 197.085 1486.4 188.305C1494.82 179.402 1504.57 172.451 1515.67 167.451C1526.77 162.451 1538.6 159.951 1551.16 159.951C1565.79 159.951 1579.15 163.183 1591.22 169.646C1603.42 175.988 1613.66 184.646 1621.95 195.622C1630.37 206.476 1636.34 218.732 1639.88 232.39C1643.42 246.049 1643.78 260.134 1640.98 274.646H1518.96C1520.67 278.915 1522.93 282.817 1525.73 286.354C1528.66 289.768 1532.2 292.512 1536.34 294.585C1540.61 296.659 1545.55 297.756 1551.16 297.878C1556.53 298 1561.46 296.841 1565.98 294.402C1570.61 291.963 1574.64 288.671 1578.05 284.524L1634.03 297.512C1626.59 313.732 1615.49 327.024 1600.73 337.39C1585.98 347.634 1569.45 352.756 1551.16 352.756ZM1516.95 234.402H1585.55C1583.84 229.159 1581.28 224.524 1577.87 220.5C1574.45 216.476 1570.43 213.305 1565.79 210.988C1561.28 208.671 1556.4 207.512 1551.16 207.512C1546.04 207.512 1541.16 208.671 1536.53 210.988C1532.01 213.305 1528.05 216.476 1524.64 220.5C1521.34 224.524 1518.78 229.159 1516.95 234.402ZM1673.87 348L1673.69 165.073H1728.57L1728.75 176.598C1734.85 171.354 1741.8 167.268 1749.61 164.341C1757.41 161.415 1765.64 159.951 1774.3 159.951C1780.89 159.951 1787.59 160.927 1794.42 162.878L1772.84 218.488C1768.57 216.537 1764.18 215.561 1759.67 215.561C1753.94 215.561 1748.69 216.963 1743.94 219.768C1739.3 222.451 1735.58 226.171 1732.78 230.927C1730.09 235.561 1728.75 240.744 1728.75 246.476V348H1673.87ZM1823.83 348L1873.59 91.9024H1920.42L1977.86 243L2035.3 91.9024H2082.13L2131.88 348H2075.91L2049.2 209.707L1996.88 348H1958.83L1906.52 209.707L1879.81 348H1823.83ZM2238.11 352.756C2221.28 352.756 2205.91 348.427 2192.01 339.768C2178.23 331.11 2167.19 319.524 2158.9 305.012C2150.73 290.378 2146.64 274.22 2146.64 256.537C2146.64 243.122 2149.02 230.622 2153.78 219.037C2158.53 207.329 2165.06 197.085 2173.35 188.305C2181.77 179.402 2191.52 172.451 2202.62 167.451C2213.72 162.451 2225.55 159.951 2238.11 159.951C2254.94 159.951 2270.24 164.28 2284.02 172.939C2297.92 181.598 2308.96 193.244 2317.13 207.878C2325.42 222.512 2329.57 238.732 2329.57 256.537C2329.57 269.829 2327.19 282.268 2322.44 293.854C2317.68 305.439 2311.09 315.683 2302.68 324.585C2294.39 333.366 2284.69 340.256 2273.59 345.256C2262.62 350.256 2250.79 352.756 2238.11 352.756ZM2238.11 297.878C2245.06 297.878 2251.28 295.988 2256.77 292.207C2262.38 288.427 2266.77 283.427 2269.94 277.207C2273.11 270.866 2274.69 263.976 2274.69 256.537C2274.69 248.854 2272.99 241.841 2269.57 235.5C2266.28 229.159 2261.83 224.159 2256.22 220.5C2250.73 216.719 2244.69 214.829 2238.11 214.829C2231.28 214.829 2225.06 216.78 2219.45 220.683C2213.96 224.463 2209.57 229.524 2206.28 235.866C2203.11 242.207 2201.52 249.098 2201.52 256.537C2201.52 264.341 2203.17 271.354 2206.46 277.573C2209.88 283.793 2214.33 288.732 2219.81 292.39C2225.42 296.049 2231.52 297.878 2238.11 297.878ZM2463.04 219.951H2431.94V348H2377.06V219.951H2353.28V165.073H2377.06V107.634H2431.94V165.073H2463.04V219.951ZM2495.78 165.073H2550.65V348H2495.78V165.073ZM2523.58 146.049C2515.65 146.049 2509.01 143.427 2503.64 138.183C2498.28 132.939 2495.59 126.415 2495.59 118.61C2495.59 110.927 2498.28 104.463 2503.64 99.2195C2509.01 93.8536 2515.59 91.1707 2523.4 91.1707C2531.08 91.1707 2537.54 93.8536 2542.79 99.2195C2548.15 104.463 2550.84 110.927 2550.84 118.61C2550.84 126.415 2548.22 132.939 2542.97 138.183C2537.85 143.427 2531.39 146.049 2523.58 146.049ZM2673.17 352.756C2656.34 352.756 2640.98 348.427 2627.08 339.768C2613.29 331.11 2602.26 319.524 2593.97 305.012C2585.79 290.378 2581.71 274.22 2581.71 256.537C2581.71 243.122 2584.09 230.622 2588.84 219.037C2593.6 207.329 2600.12 197.085 2608.42 188.305C2616.83 179.402 2626.59 172.451 2637.68 167.451C2648.78 162.451 2660.61 159.951 2673.17 159.951C2690 159.951 2705.31 164.28 2719.09 172.939C2732.99 181.598 2744.03 193.244 2752.2 207.878C2760.49 222.512 2764.64 238.732 2764.64 256.537C2764.64 269.829 2762.26 282.268 2757.5 293.854C2752.75 305.439 2746.16 315.683 2737.75 324.585C2729.45 333.366 2719.76 340.256 2708.66 345.256C2697.69 350.256 2685.86 352.756 2673.17 352.756ZM2673.17 297.878C2680.12 297.878 2686.34 295.988 2691.83 292.207C2697.44 288.427 2701.83 283.427 2705 277.207C2708.17 270.866 2709.76 263.976 2709.76 256.537C2709.76 248.854 2708.05 241.841 2704.64 235.5C2701.34 229.159 2696.89 224.159 2691.28 220.5C2685.79 216.719 2679.76 214.829 2673.17 214.829C2666.34 214.829 2660.12 216.78 2654.51 220.683C2649.03 224.463 2644.64 229.524 2641.34 235.866C2638.17 242.207 2636.59 249.098 2636.59 256.537C2636.59 264.341 2638.23 271.354 2641.53 277.573C2644.94 283.793 2649.39 288.732 2654.88 292.39C2660.49 296.049 2666.59 297.878 2673.17 297.878ZM2967.47 231.11V348H2912.6V246.476C2912.6 240.744 2911.19 235.561 2908.39 230.927C2905.58 226.171 2901.86 222.451 2897.23 219.768C2892.6 216.963 2887.41 215.561 2881.68 215.561C2875.95 215.561 2870.71 216.963 2865.95 219.768C2861.32 222.451 2857.6 226.171 2854.79 230.927C2852.11 235.561 2850.77 240.744 2850.77 246.476V348H2795.89L2795.71 165.073H2850.58L2850.77 176.598C2856.86 171.354 2863.82 167.268 2871.62 164.341C2879.42 161.415 2887.66 159.951 2896.32 159.951C2909.49 159.951 2921.44 163.183 2932.17 169.646C2942.9 175.988 2951.44 184.524 2957.78 195.256C2964.24 205.988 2967.47 217.939 2967.47 231.11Z"
        fill="#9D9D9D" />
</svg>