<svg width="200" viewBox="0 0 2750 439" fill="none" xmlns="http://www.w3.org/2000/svg">
    <path
        d="M297.364 318.171C275.347 340.179 253.241 362.311 231.039 384.557C230.157 385.44 229.416 385.925 228.111 385.925C208.66 385.907 189.651 385.898 171.074 385.898C160.057 385.907 149.71 385.175 140.034 383.711C139.901 383.693 139.848 383.525 139.945 383.428C171.463 351.999 202.795 320.667 233.959 289.432C255.297 268.042 266.085 238.924 262.433 208.668C257.158 164.996 224.088 130.594 180.636 123.784C168.058 121.808 153.803 122.452 141.18 125.857C123.3 130.673 108.04 139.68 95.3908 152.884C80.0512 168.894 69.7837 190.735 68.7252 213.123C67.552 237.936 74.7675 262.44 90.4599 281.308C106.214 300.247 126.388 311.838 150.972 316.089C151.148 316.116 151.227 316.336 151.095 316.469L97.1374 370.294C96.8904 370.541 96.5287 370.603 96.22 370.453C52.327 349.944 19.4602 311.652 6.20236 264.999C1.65076 248.98 -0.3957 231.682 0.0629888 213.114C1.02447 174.531 17.7313 135.11 44.2029 107.104C68.9104 80.9586 98.6634 64.3311 133.471 57.2302C145.776 54.7163 159.034 53.9577 172.142 54.0018C190.939 54.0635 209.657 54.0724 228.305 54.0194C229.178 54.0194 230.007 54.3635 230.625 54.9809L297.258 121.711C297.425 121.879 297.708 121.879 297.884 121.711L364.897 54.6104C365.25 54.2488 365.735 54.0459 366.246 54.0459C385.688 54.0283 406.858 54.0371 429.757 54.0635C438.437 54.0724 446.817 54.7427 454.888 56.0571C455.161 56.1012 455.276 56.4364 455.073 56.6392C426.361 85.3514 397.49 114.196 368.469 143.155C361.677 149.938 357.567 154.137 356.138 155.751C318.931 198.048 325.432 261.991 369.36 296.542C389.278 312.208 416.976 320.165 442.301 316.169C470.527 311.723 492.756 298.077 508.978 275.222C531.621 243.334 531.948 200.209 510.839 167.36C495.72 143.825 472.239 128.75 444.55 123.819C444.065 123.74 444.003 123.52 444.347 123.176L497.969 69.6148C498.172 69.412 498.49 69.3502 498.754 69.4737C518.24 78.3476 535.582 90.9527 550.78 107.289C577.472 135.984 592.494 172.335 594.735 211.464C597.567 260.897 577.552 308.3 541.951 341.229C516.599 364.666 486.961 378.903 453.027 383.922C442.336 385.51 431.195 385.942 419.304 385.925C401.848 385.907 384.303 385.907 366.67 385.916C365.902 385.916 365.25 385.642 364.712 385.104L297.831 318.171C297.699 318.039 297.487 318.039 297.364 318.171Z"
        fill="#9D9D9D" />
    <path
        d="M816.951 348L866.707 91.9024H913.537L970.976 243L1028.41 91.9024H1075.24L1125 348H1069.02L1042.32 209.707L990 348H951.951L899.634 209.707L872.927 348H816.951ZM1231.22 352.756C1214.39 352.756 1199.03 348.427 1185.13 339.768C1171.35 331.11 1160.31 319.524 1152.02 305.012C1143.85 290.378 1139.76 274.22 1139.76 256.537C1139.76 243.122 1142.14 230.622 1146.89 219.037C1151.65 207.329 1158.17 197.085 1166.47 188.305C1174.88 179.402 1184.64 172.451 1195.74 167.451C1206.83 162.451 1218.66 159.951 1231.22 159.951C1248.05 159.951 1263.36 164.28 1277.14 172.939C1291.04 181.598 1302.08 193.244 1310.25 207.878C1318.54 222.512 1322.69 238.732 1322.69 256.537C1322.69 269.829 1320.31 282.268 1315.55 293.854C1310.8 305.439 1304.21 315.683 1295.8 324.585C1287.5 333.366 1277.81 340.256 1266.71 345.256C1255.74 350.256 1243.91 352.756 1231.22 352.756ZM1231.22 297.878C1238.17 297.878 1244.39 295.988 1249.88 292.207C1255.49 288.427 1259.88 283.427 1263.05 277.207C1266.22 270.866 1267.81 263.976 1267.81 256.537C1267.81 248.854 1266.1 241.841 1262.69 235.5C1259.39 229.159 1254.94 224.159 1249.33 220.5C1243.85 216.719 1237.81 214.829 1231.22 214.829C1224.39 214.829 1218.17 216.78 1212.56 220.683C1207.08 224.463 1202.69 229.524 1199.39 235.866C1196.22 242.207 1194.64 249.098 1194.64 256.537C1194.64 264.341 1196.28 271.354 1199.58 277.573C1202.99 283.793 1207.44 288.732 1212.93 292.39C1218.54 296.049 1224.64 297.878 1231.22 297.878ZM1456.15 219.951H1425.05V348H1370.18V219.951H1346.4V165.073H1370.18V107.634H1425.05V165.073H1456.15V219.951ZM1488.89 165.073H1543.77V348H1488.89V165.073ZM1516.7 146.049C1508.77 146.049 1502.12 143.427 1496.76 138.183C1491.39 132.939 1488.71 126.415 1488.71 118.61C1488.71 110.927 1491.39 104.463 1496.76 99.2195C1502.12 93.8536 1508.71 91.1707 1516.51 91.1707C1524.2 91.1707 1530.66 93.8536 1535.91 99.2195C1541.27 104.463 1543.95 110.927 1543.95 118.61C1543.95 126.415 1541.33 132.939 1536.09 138.183C1530.97 143.427 1524.5 146.049 1516.7 146.049ZM1666.29 352.756C1649.46 352.756 1634.09 348.427 1620.19 339.768C1606.41 331.11 1595.37 319.524 1587.08 305.012C1578.91 290.378 1574.83 274.22 1574.83 256.537C1574.83 243.122 1577.2 230.622 1581.96 219.037C1586.72 207.329 1593.24 197.085 1601.53 188.305C1609.95 179.402 1619.7 172.451 1630.8 167.451C1641.9 162.451 1653.73 159.951 1666.29 159.951C1683.12 159.951 1698.42 164.28 1712.2 172.939C1726.11 181.598 1737.14 193.244 1745.31 207.878C1753.61 222.512 1757.75 238.732 1757.75 256.537C1757.75 269.829 1755.37 282.268 1750.62 293.854C1745.86 305.439 1739.28 315.683 1730.86 324.585C1722.57 333.366 1712.87 340.256 1701.78 345.256C1690.8 350.256 1678.97 352.756 1666.29 352.756ZM1666.29 297.878C1673.24 297.878 1679.46 295.988 1684.95 292.207C1690.56 288.427 1694.95 283.427 1698.12 277.207C1701.29 270.866 1702.87 263.976 1702.87 256.537C1702.87 248.854 1701.17 241.841 1697.75 235.5C1694.46 229.159 1690.01 224.159 1684.4 220.5C1678.91 216.719 1672.87 214.829 1666.29 214.829C1659.46 214.829 1653.24 216.78 1647.63 220.683C1642.14 224.463 1637.75 229.524 1634.46 235.866C1631.29 242.207 1629.7 249.098 1629.7 256.537C1629.7 264.341 1631.35 271.354 1634.64 277.573C1638.06 283.793 1642.51 288.732 1648 292.39C1653.61 296.049 1659.7 297.878 1666.29 297.878ZM1960.59 231.11V348H1905.71V246.476C1905.71 240.744 1904.31 235.561 1901.5 230.927C1898.7 226.171 1894.98 222.451 1890.35 219.768C1885.71 216.963 1880.53 215.561 1874.8 215.561C1869.07 215.561 1863.82 216.963 1859.07 219.768C1854.43 222.451 1850.71 226.171 1847.91 230.927C1845.22 235.561 1843.88 240.744 1843.88 246.476V348H1789L1788.82 165.073H1843.7L1843.88 176.598C1849.98 171.354 1856.93 167.268 1864.74 164.341C1872.54 161.415 1880.77 159.951 1889.43 159.951C1902.6 159.951 1914.55 163.183 1925.28 169.646C1936.02 175.988 1944.55 184.524 1950.89 195.256C1957.36 205.988 1960.59 217.939 1960.59 231.11ZM2094.43 352.756C2080.04 352.756 2066.26 350.5 2053.09 345.988C2039.92 341.354 2028.4 334.768 2018.52 326.232C2008.64 317.573 2001.51 307.268 1997.12 295.317L2048.7 276.293C2049.92 279.829 2052.6 283.244 2056.75 286.537C2061.02 289.829 2066.38 292.573 2072.85 294.768C2079.31 296.841 2086.51 297.878 2094.43 297.878C2101.75 297.878 2108.64 296.841 2115.1 294.768C2121.57 292.573 2126.81 289.585 2130.83 285.805C2134.86 282.024 2136.87 277.634 2136.87 272.634C2136.87 267.512 2134.74 263.305 2130.47 260.012C2126.32 256.598 2120.96 253.915 2114.37 251.963C2107.91 249.89 2101.26 248.366 2094.43 247.39C2075.9 244.707 2059.25 240.317 2044.49 234.219C2029.86 228 2018.27 219.463 2009.74 208.61C2001.32 197.756 1997.12 183.976 1997.12 167.268C1997.12 151.293 2001.63 137.329 2010.65 125.378C2019.68 113.305 2031.57 103.915 2046.32 97.2073C2061.2 90.5 2077.24 87.1463 2094.43 87.1463C2108.82 87.1463 2122.6 89.4634 2135.77 94.0975C2149.07 98.6097 2160.65 105.195 2170.53 113.854C2180.41 122.512 2187.48 132.878 2191.75 144.951L2140.16 163.61C2138.94 160.073 2136.2 156.719 2131.93 153.549C2127.79 150.256 2122.48 147.573 2116.02 145.5C2109.55 143.427 2102.36 142.39 2094.43 142.39C2087.36 142.268 2080.59 143.305 2074.13 145.5C2067.66 147.695 2062.36 150.683 2058.21 154.463C2054.07 158.244 2051.99 162.512 2051.99 167.268C2051.99 173.854 2053.94 178.793 2057.85 182.085C2061.75 185.256 2066.87 187.512 2073.21 188.854C2079.68 190.195 2086.75 191.415 2094.43 192.512C2111.99 195.073 2128.15 199.646 2142.91 206.232C2157.66 212.817 2169.49 221.598 2178.4 232.573C2187.3 243.549 2191.75 256.902 2191.75 272.634C2191.75 288.61 2187.24 302.634 2178.21 314.707C2169.31 326.659 2157.48 335.988 2142.72 342.695C2127.97 349.402 2111.87 352.756 2094.43 352.756ZM2407.36 231.11V348H2352.48V246.476C2352.48 240.744 2351.08 235.561 2348.27 230.927C2345.47 226.171 2341.75 222.451 2337.12 219.768C2332.48 216.963 2327.3 215.561 2321.57 215.561C2315.84 215.561 2310.59 216.963 2305.84 219.768C2301.2 222.451 2297.48 226.171 2294.68 230.927C2291.99 235.561 2290.65 240.744 2290.65 246.476V348H2235.77L2235.59 73.6097H2290.47L2290.65 176.598C2296.75 171.354 2303.7 167.268 2311.51 164.341C2319.31 161.415 2327.54 159.951 2336.2 159.951C2349.37 159.951 2361.32 163.183 2372.06 169.646C2382.79 175.988 2391.32 184.524 2397.67 195.256C2404.13 205.988 2407.36 217.939 2407.36 231.11ZM2524.46 352.756C2507.63 352.756 2492.26 348.427 2478.36 339.768C2464.58 331.11 2453.54 319.524 2445.25 305.012C2437.08 290.378 2433 274.22 2433 256.537C2433 243.122 2435.37 230.622 2440.13 219.037C2444.89 207.329 2451.41 197.085 2459.7 188.305C2468.12 179.402 2477.87 172.451 2488.97 167.451C2500.07 162.451 2511.9 159.951 2524.46 159.951C2541.29 159.951 2556.59 164.28 2570.37 172.939C2584.28 181.598 2595.31 193.244 2603.48 207.878C2611.78 222.512 2615.92 238.732 2615.92 256.537C2615.92 269.829 2613.54 282.268 2608.79 293.854C2604.03 305.439 2597.45 315.683 2589.03 324.585C2580.74 333.366 2571.04 340.256 2559.95 345.256C2548.97 350.256 2537.14 352.756 2524.46 352.756ZM2524.46 297.878C2531.41 297.878 2537.63 295.988 2543.12 292.207C2548.73 288.427 2553.12 283.427 2556.29 277.207C2559.46 270.866 2561.04 263.976 2561.04 256.537C2561.04 248.854 2559.34 241.841 2555.92 235.5C2552.63 229.159 2548.18 224.159 2542.57 220.5C2537.08 216.719 2531.04 214.829 2524.46 214.829C2517.63 214.829 2511.41 216.78 2505.8 220.683C2500.31 224.463 2495.92 229.524 2492.63 235.866C2489.46 242.207 2487.87 249.098 2487.87 256.537C2487.87 264.341 2489.52 271.354 2492.81 277.573C2496.23 283.793 2500.68 288.732 2506.17 292.39C2511.78 296.049 2517.87 297.878 2524.46 297.878ZM2749.39 219.951H2718.29V348H2663.41V219.951H2639.63V165.073H2663.41V107.634H2718.29V165.073H2749.39V219.951Z"
        fill="#9D9D9D" />
</svg>