<svg xmlns:xlink="http://www.w3.org/1999/xlink" width="16" height="16" viewBox="0 0 512 512" fill="none"
     xmlns="http://www.w3.org/2000/svg" class="">
    <rect id="r4" width="512" height="512" x="0" y="0" rx="128" fill="url(#r5)" stroke="#FFFFFF" stroke-width="0"
          stroke-opacity="100%" paint-order="stroke"></rect>
    <clipPath id="clip">
        <use xlink:href="#r4"></use>
    </clipPath>
    <defs>
        <linearGradient id="r5" gradientUnits="userSpaceOnUse" gradientTransform="rotate(45)"
                        style="transform-origin: center center;">
            <stop stop-color="#F5AF19"></stop>
            <stop offset="1" stop-color="#F12711"></stop>
        </linearGradient>
        <radialGradient id="r6" cx="0" cy="0" r="1" gradientUnits="userSpaceOnUse"
                        gradientTransform="translate(256) rotate(90) scale(512)">
            <stop stop-color="white"></stop>
            <stop offset="1" stop-color="white" stop-opacity="0"></stop>
        </radialGradient>
    </defs>
    <svg xmlns="http://www.w3.org/2000/svg" fill="none" viewBox="0 0 16 16" width="352" height="352" x="80" y="80"
         alignment-baseline="middle" style="color: rgb(255, 255, 255);">
        <path stroke="currentColor" stroke-linecap="round" stroke-linejoin="round" stroke-width="1.5"
              d="M10.25 8.5a2.25 2.25 0 1 1-4.5 0 2.25 2.25 0 0 1 4.5 0Z"></path>
        <path stroke="currentColor" stroke-linecap="round" stroke-linejoin="round" stroke-width="1.5"
              d="M1.75 6.75v4.5a2 2 0 0 0 2 2h8.5a2 2 0 0 0 2-2v-4.5a2 2 0 0 0-2-2h-.382a1 1 0 0 1-.894-.553l-.448-.894a1 1 0 0 0-.894-.553H6.368a1 1 0 0 0-.894.553l-.448.894a1 1 0 0 1-.894.553H3.75a2 2 0 0 0-2 2Z"></path>
    </svg>
</svg>
